<svg width="28" height="18" viewBox="0 0 28 18" fill="none" xmlns="http://www.w3.org/2000/svg">
<path d="M9.22272 15.986H6.52919L4.53997 10.9987L2.69353 15.986H0L3.17893 8.75249L0.237944 2.07102H2.84581L4.68274 6.64907L6.27221 2.07102H8.98477L6.04378 8.86671L9.22272 15.986Z" fill="#4A4A4A"/>
<path d="M17.1438 15.986L16.3443 12.4739H12.718L11.9185 15.986H9.32969L12.7751 2.01392H16.2872L19.7421 15.986H17.1438ZM15.8589 10.1802L15.1165 6.94412C15.0721 6.74742 14.9706 6.25567 14.8119 5.46886C14.6596 4.67572 14.5676 4.1459 14.5359 3.8794C14.4534 4.42508 14.3487 5.02788 14.2218 5.68777C14.0949 6.34133 13.765 7.83879 13.232 10.1802H15.8589Z" fill="#4A4A4A"/>
<path d="M23.6372 15.986H21.0674V2.07102H27.3015V4.3077H23.6372V8.17191H27.0541V10.4086H23.6372V15.986Z" fill="#4A4A4A"/>
</svg>
